<?xml version="1.0" encoding="UTF-8"?>
<svg id="Camada_2" data-name="Camada 2" xmlns="http://www.w3.org/2000/svg" viewBox="0 0 540.4 632.31">
  <defs>
    <style>
      .cls-1 {
        fill: #aadfcd;
        fill-rule: evenodd;
      }
    </style>
  </defs>
  <g id="Camada_1-2" data-name="Camada 1">
    <g>
      <path class="cls-1" d="M377.71,530.79c-43.79,31.33-88.17,46.78-107.51,52.53-19.79-5.87-65.43-21.79-110.04-54.36-59.91-43.76-96.17-101.02-108.25-170.66l79.5,79.5c34.5,37.25,83.83,60.58,138.62,60.58,85.82,0,158.26-57.23,181.26-135.64l-41.83-41.78c-5.85,71.9-66.03,128.41-139.43,128.41-40.86,0-77.64-17.51-103.2-45.45l-31.95-31.92h-.02l-53.5-53.49-34-34L0,237.14v66.69c0,.87,0,1.71.02,2.55,1.71,267.67,270.17,325.92,270.17,325.92,0,0,182.3-39.53,247.41-203.23l-37.15-37.12c-17.04,55.55-51.39,102.04-102.76,138.84Z"/>
      <path class="cls-1" d="M270.2,0S135.1,84.16,0,83.83v84.08l47.35,47.35v-86.83c94.9-10.97,181.64-51.89,222.82-73.95,41.24,22.07,127.94,62.98,222.87,73.95v137.6l-80.42-80.39-.12-.15c-5.77-6.64-12.04-12.85-18.65-18.62l-1.14-1.14-.07.1c-32.99-28.21-75.81-45.22-122.62-45.22-85.94,0-158.48,57.38-181.36,135.89l41.9,41.9c5.62-72.09,65.9-128.83,139.46-128.83,33.26,0,63.82,11.64,87.82,31.06.94.69,1.86,1.44,2.75,2.25l3.62,3.62,12.41,12.38,82.1,82.1,32.99,32.99v.02l41.71,41.71s.02-.02.02-.07h-.02c3.94-19.34,6.34-40.12,6.84-62.36.1-3.15.15-6.27.15-9.44V83.83C405.3,84.16,270.2,0,270.2,0Z"/>
      <path class="cls-1" d="M232.87,392.51c.05.02.1.05.15.07,2.34,1.04,4.72,2,7.16,2.84.09.03.17.07.26.1,2.51.86,5.05,1.64,7.65,2.28.59.14,1.21.23,1.8.36,2.04.47,4.09.93,6.19,1.25.7.11,1.4.21,2.1.3.72.09,1.46.19,2.2.27h.02c1.57.15,3.13.27,4.72.38,1.69.09,3.39.11,5.1.11,1.52,0,3.01-.02,4.49-.09.55-.03,1.09-.06,1.63-.09.21-.01.42-.02.64-.04.21-.01.45-.04.67-.06.52-.04,1.03-.08,1.56-.13.74-.08,1.47-.21,2.21-.31,1.46-.18,2.93-.34,4.38-.59h.02c1.2-.21,2.39-.45,3.58-.71,41.03-8.78,71.83-45.29,71.83-88.96,0-21.33-7.35-40.95-19.66-56.49-.19-.25-.4-.53-.61-.76-3.33-4.15-7.03-7.98-11.03-11.44-.83-.72-1.67-1.42-2.52-2.1-11.39-9.21-25.08-15.71-40.03-18.56-.33-.06-.66-.15-.99-.21-.26-.05-.53-.07-.8-.11-1.94-.33-3.91-.63-5.88-.83-1.19-.15-2.41-.25-3.62-.32-1.93-.11-3.9-.17-5.87-.17-1.57,0-3.13.02-4.68.09-.28.01-.56.05-.84.06-.48.03-.95.05-1.42.09-.2.01-.4.04-.6.06-.96.08-1.91.17-2.86.28-.72.08-1.43.17-2.15.27-.59.08-1.18.17-1.77.26-1.07.17-2.13.35-3.18.56-.23.05-.47.09-.7.14-41.62,8.34-72.99,45.11-72.99,89.19,0,22.88,8.45,43.81,22.44,59.81,8.6,9.86,19.32,17.8,31.42,23.22ZM255.37,265.54c1.1-.37,2.21-.69,3.35-.98.4-.1.79-.19,1.19-.28,1.1-.25,2.2-.48,3.33-.65.04,0,.07-.01.11-.02.34-.05.69-.09,1.04-.13.38-.05.76-.1,1.15-.14.76-.06,1.53-.13,2.29-.17.35-.02.71-.01,1.06-.02.44,0,.88-.01,1.32-.01.41,0,.82,0,1.23.01.32,0,.65,0,.97.02.78.04,1.53.11,2.29.17.32.03.62.08.93.11.41.05.82.09,1.23.16.1.01.2.04.3.05.87.13,1.73.32,2.59.49.91.2,1.82.41,2.72.66.26.07.52.15.77.22,19.15,5.72,33.12,23.45,33.12,44.44s-14.05,38.82-33.29,44.47c-.14.04-.28.08-.43.12-.99.28-1.99.51-3,.73-.77.16-1.54.32-2.33.44-.15.02-.3.05-.46.08-.72.12-1.44.2-2.15.27-.06,0-.13.01-.19.02-.7.07-1.4.12-2.11.18-.72.04-1.43.05-2.15.05-.02,0-.03,0-.05,0-.79,0-1.59-.02-2.38-.06-.66-.05-1.33-.1-1.99-.16-.1,0-.21-.02-.31-.03-.74-.07-1.46-.17-2.18-.27-.61-.09-1.21-.23-1.82-.35-21.43-4.07-37.67-22.85-37.67-45.49,0-20.32,13.1-37.62,31.3-43.88.07-.02.14-.05.21-.07Z"/>
    </g>
  </g>
</svg>