<?xml version="1.0" encoding="UTF-8"?>
<svg id="Camada_2" data-name="Camada 2" xmlns="http://www.w3.org/2000/svg" viewBox="0 0 528.41 392.25">
  <defs>
    <style>
      .cls-1, .cls-2 {
        fill: #f3fffb;
      }

      .cls-2 {
        fill-rule: evenodd;
      }
    </style>
  </defs>
  <g id="Camada_1-2" data-name="Camada 1">
    <g>
      <g>
        <path class="cls-2" d="M304.78,200.15c-16.51,11.81-33.25,17.64-40.54,19.81-7.46-2.21-24.67-8.22-41.49-20.5-22.59-16.5-36.26-38.09-40.82-64.35l29.98,29.98c13.01,14.05,31.61,22.84,52.27,22.84,32.36,0,59.68-21.58,68.35-51.15l-15.77-15.75c-2.2,27.11-24.9,48.42-52.58,48.42-15.41,0-29.28-6.6-38.92-17.14l-12.05-12.04h0l-20.17-20.17-12.82-12.82-17.86-17.86v25.15c0,.33,0,.64,0,.96.64,100.93,101.88,122.9,101.88,122.9,0,0,68.74-14.9,93.3-76.63l-14.01-14c-6.43,20.95-19.38,38.48-38.75,52.35Z"/>
        <path class="cls-2" d="M264.24,0s-50.94,31.73-101.89,31.61v31.71l17.86,17.86v-32.74c35.79-4.14,68.49-19.57,84.02-27.89,15.55,8.32,48.24,23.75,84.04,27.89v51.89l-30.32-30.31-.05-.06c-2.18-2.5-4.54-4.85-7.03-7.02l-.43-.43-.03.04c-12.44-10.64-28.59-17.05-46.24-17.05-32.41,0-59.76,21.64-68.39,51.24l15.8,15.8c2.12-27.19,24.85-48.58,52.59-48.58,12.54,0,24.07,4.39,33.12,11.71.35.26.7.54,1.04.85l1.36,1.36,4.68,4.67,30.96,30.96,12.44,12.44h0s15.73,15.74,15.73,15.74c0,0,0,0,0-.03h0c1.48-7.29,2.39-15.13,2.58-23.52.04-1.19.06-2.36.06-3.56V31.61c-50.94.12-101.89-31.61-101.89-31.61Z"/>
        <path class="cls-2" d="M250.16,148.01s.04.02.06.03c.88.39,1.78.75,2.7,1.07.03.01.06.03.1.04.94.32,1.9.62,2.88.86.22.05.46.09.68.14.77.18,1.54.35,2.33.47.26.04.53.08.79.11.27.04.55.07.83.1h0c.59.06,1.18.1,1.78.14.64.04,1.28.04,1.92.04.57,0,1.14,0,1.69-.04.21-.01.41-.02.61-.04.08,0,.16,0,.24-.01.08,0,.17-.02.25-.02.19-.02.39-.03.59-.05.28-.03.56-.08.83-.12.55-.07,1.11-.13,1.65-.22h0c.45-.08.9-.17,1.35-.27,15.47-3.31,27.09-17.08,27.09-33.54,0-8.04-2.77-15.44-7.41-21.3-.07-.09-.15-.2-.23-.29-1.26-1.56-2.65-3.01-4.16-4.31-.31-.27-.63-.54-.95-.79-4.3-3.47-9.46-5.92-15.1-7-.13-.02-.25-.06-.37-.08-.1-.02-.2-.03-.3-.04-.73-.13-1.47-.24-2.22-.31-.45-.06-.91-.09-1.36-.12-.73-.04-1.47-.06-2.21-.06-.59,0-1.18,0-1.76.04-.11,0-.21.02-.32.02-.18.01-.36.02-.54.04-.08,0-.15.02-.23.02-.36.03-.72.06-1.08.1-.27.03-.54.06-.81.1-.22.03-.45.06-.67.1-.4.06-.8.13-1.2.21-.09.02-.18.03-.26.05-15.7,3.15-27.52,17.01-27.52,33.63,0,8.63,3.18,16.52,8.46,22.55,3.24,3.72,7.29,6.71,11.85,8.75ZM258.65,100.13c.41-.14.84-.26,1.26-.37.15-.04.3-.07.45-.11.41-.09.83-.18,1.25-.25.01,0,.03,0,.04,0,.13-.02.26-.03.39-.05.14-.02.29-.04.43-.05.29-.02.58-.05.86-.06.13,0,.27,0,.4,0,.17,0,.33,0,.5,0,.16,0,.31,0,.46,0,.12,0,.24,0,.37,0,.29.01.58.04.86.06.12.01.23.03.35.04.16.02.31.03.47.06.04,0,.08.01.11.02.33.05.65.12.98.19.34.07.69.15,1.02.25.1.03.19.06.29.08,7.22,2.16,12.49,8.84,12.49,16.76s-5.3,14.64-12.55,16.77c-.05.02-.11.03-.16.05-.37.11-.75.19-1.13.27-.29.06-.58.12-.88.17-.06,0-.11.02-.17.03-.27.05-.54.07-.81.1-.02,0-.05,0-.07,0-.26.03-.53.05-.8.07-.27.01-.54.02-.81.02,0,0-.01,0-.02,0-.3,0-.6,0-.9-.02-.25-.02-.5-.04-.75-.06-.04,0-.08,0-.12-.01-.28-.03-.55-.07-.82-.1-.23-.03-.46-.09-.69-.13-8.08-1.54-14.2-8.62-14.2-17.15,0-7.66,4.94-14.19,11.8-16.55.03,0,.05-.02.08-.03Z"/>
      </g>
      <g>
        <path class="cls-1" d="M21.25,296.74v93.97H0v-93.97h21.25Z"/>
        <path class="cls-1" d="M58.72,366.59l-6.63,24.13h-21.97l28.68-93.97h27.81l29.25,93.97h-22.89l-7.23-24.13h-27.02ZM82.59,350.76l-5.85-19.97c-1.61-5.56-3.28-12.6-4.72-18.1h-.29c-1.38,5.53-2.8,12.66-4.3,18.12l-5.62,19.95h20.79Z"/>
        <path class="cls-1" d="M151.68,368.78c5.63,3.02,14.47,5.9,23.55,5.9,9.76,0,14.93-4.05,14.93-10.24,0-5.77-4.48-9.17-15.73-13.14-15.68-5.56-25.92-14.1-25.92-27.83,0-16.02,13.45-28.2,35.54-28.2,10.72,0,18.45,2.13,23.99,4.73l-4.7,17.04c-3.73-1.78-10.49-4.46-19.61-4.46s-13.67,4.28-13.67,9.09c0,5.97,5.21,8.61,17.4,13.21,16.64,6.22,24.34,14.85,24.34,28.14,0,15.69-12.01,29.15-37.88,29.15-10.65,0-21.31-2.9-26.54-5.84l4.3-17.55Z"/>
        <path class="cls-1" d="M240.04,363.42c.63,8.8,9.33,12.99,19.23,12.99,7.18,0,13.05-.96,18.78-2.89l2.86,14.35c-7.06,2.88-15.57,4.31-24.72,4.31-23.12,0-36.39-13.46-36.39-34.73,0-17.34,10.81-36.51,34.4-36.51,22.12,0,30.47,17.19,30.47,34.07,0,3.7-.39,6.83-.76,8.4h-43.86ZM264.95,348.88c.04-5.11-2.24-13.83-11.9-13.83-8.96,0-12.59,8.19-13.18,13.83h25.08Z"/>
        <path class="cls-1" d="M294.52,344.27c0-8.5-.26-15.68-.56-21.8h18.4l.98,9.46h.44c2.75-4.4,9.7-10.99,21.09-10.99,13.94,0,24.42,9.3,24.42,29.38v40.39h-21.25v-37.82c0-8.79-3.14-14.81-10.79-14.81-5.84,0-9.29,4.09-10.76,8.01-.54,1.33-.74,3.35-.74,5.25v39.37h-21.25v-46.44Z"/>
        <path class="cls-1" d="M395.28,303.53c.03,5.91-4.34,10.6-11.4,10.6s-11.07-4.69-11.04-10.6c-.03-6.06,4.42-10.62,11.23-10.62s11.13,4.54,11.21,10.62ZM373.43,390.71v-68.24h21.25v68.24h-21.25Z"/>
        <path class="cls-1" d="M476.15,355.91c0,24.94-17.66,36.34-35.96,36.34-19.85,0-35.24-13.12-35.24-35.16s14.53-36.15,36.46-36.15,34.74,14.37,34.74,34.97ZM426.81,356.61c0,11.65,4.92,20.48,13.96,20.48,8.27,0,13.51-8.28,13.51-20.59,0-10.06-3.88-20.41-13.49-20.41-10.12,0-13.98,10.4-13.98,20.52Z"/>
        <path class="cls-1" d="M486.49,344.97c0-10.02-.18-16.62-.56-22.5h18.23l.77,12.63h.52c3.5-9.98,11.81-14.16,18.42-14.16,1.96,0,2.95.05,4.53.4v19.95c-1.64-.35-3.35-.59-5.74-.59-7.79,0-13.12,4.13-14.54,10.77-.27,1.35-.39,3-.39,4.72v34.53h-21.25v-45.75Z"/>
      </g>
    </g>
  </g>
</svg>