<?xml version="1.0" encoding="UTF-8"?>
<svg id="Camada_2" data-name="Camada 2" xmlns="http://www.w3.org/2000/svg" viewBox="0 0 584.19 176.74">
  <defs>
    <style>
      .cls-1, .cls-2 {
        fill: #f3fffb;
      }

      .cls-2 {
        fill-rule: evenodd;
      }
    </style>
  </defs>
  <g id="Camada_1-2" data-name="Camada 1">
    <g>
      <g>
        <path class="cls-2" d="M105.58,148.37c-12.24,8.76-24.64,13.08-30.05,14.68-5.53-1.64-18.29-6.09-30.76-15.2-16.75-12.23-26.88-28.24-30.26-47.7l22.22,22.22c9.64,10.41,23.43,16.93,38.75,16.93,23.99,0,44.24-16,50.67-37.92l-11.69-11.68c-1.63,20.1-18.46,35.89-38.97,35.89-11.42,0-21.7-4.89-28.85-12.7l-8.93-8.92h0l-14.95-14.95-9.5-9.5L0,66.28v18.64c0,.24,0,.48,0,.71.48,74.82,75.52,91.1,75.52,91.1,0,0,50.96-11.05,69.16-56.81l-10.38-10.38c-4.76,15.53-14.36,28.52-28.72,38.81Z"/>
        <path class="cls-2" d="M75.53,0S37.76,23.52,0,23.43v23.5l13.24,13.24v-24.27c26.53-3.07,50.77-14.5,62.28-20.67,11.53,6.17,35.76,17.6,62.3,20.67v38.46l-22.48-22.47-.03-.04c-1.61-1.86-3.36-3.59-5.21-5.21l-.32-.32-.02.03c-9.22-7.88-21.19-12.64-34.27-12.64-24.02,0-44.3,16.04-50.69,37.98l11.71,11.71c1.57-20.15,18.42-36.01,38.98-36.01,9.3,0,17.84,3.25,24.55,8.68.26.19.52.4.77.63l1.01,1.01,3.47,3.46,22.95,22.95,9.22,9.22h0s11.66,11.66,11.66,11.66c0,0,0,0,0-.02h0c1.1-5.41,1.77-11.21,1.91-17.43.03-.88.04-1.75.04-2.64V23.43C113.29,23.52,75.53,0,75.53,0Z"/>
        <path class="cls-2" d="M65.09,109.71s.03.01.04.02c.65.29,1.32.56,2,.79.02,0,.05.02.07.03.7.24,1.41.46,2.14.64.17.04.34.06.5.1.57.13,1.14.26,1.73.35.2.03.39.06.59.08.2.03.41.05.61.07h0c.44.04.87.07,1.32.11.47.03.95.03,1.42.03.42,0,.84,0,1.25-.03.15,0,.3-.02.46-.03.06,0,.12,0,.18,0,.06,0,.12-.01.19-.02.14-.01.29-.02.44-.04.21-.02.41-.06.62-.09.41-.05.82-.1,1.22-.17h0c.34-.06.67-.13,1-.2,11.47-2.45,20.08-12.66,20.08-24.87,0-5.96-2.05-11.45-5.5-15.79-.05-.07-.11-.15-.17-.21-.93-1.16-1.96-2.23-3.08-3.2-.23-.2-.47-.4-.7-.59-3.18-2.57-7.01-4.39-11.19-5.19-.09-.02-.18-.04-.28-.06-.07-.01-.15-.02-.22-.03-.54-.09-1.09-.18-1.64-.23-.33-.04-.67-.07-1.01-.09-.54-.03-1.09-.05-1.64-.05-.44,0-.87,0-1.31.03-.08,0-.16.01-.23.02-.13,0-.27.01-.4.03-.06,0-.11.01-.17.02-.27.02-.54.05-.8.08-.2.02-.4.05-.6.08-.17.02-.33.05-.5.07-.3.05-.6.1-.89.16-.07.01-.13.03-.2.04-11.63,2.33-20.4,12.61-20.4,24.93,0,6.4,2.36,12.25,6.27,16.72,2.4,2.75,5.4,4.97,8.78,6.49ZM71.38,74.22c.31-.1.62-.19.94-.27.11-.03.22-.05.33-.08.31-.07.62-.13.93-.18.01,0,.02,0,.03,0,.1-.01.19-.02.29-.04.11-.01.21-.03.32-.04.21-.02.43-.04.64-.05.1,0,.2,0,.3,0,.12,0,.25,0,.37,0,.12,0,.23,0,.34,0,.09,0,.18,0,.27,0,.22.01.43.03.64.05.09,0,.17.02.26.03.12.01.23.02.35.04.03,0,.06,0,.08.01.24.04.48.09.72.14.26.06.51.11.76.18.07.02.14.04.22.06,5.35,1.6,9.26,6.55,9.26,12.42s-3.93,10.85-9.3,12.43c-.04.01-.08.02-.12.03-.28.08-.56.14-.84.2-.22.04-.43.09-.65.12-.04,0-.09.01-.13.02-.2.03-.4.06-.6.08-.02,0-.04,0-.05,0-.2.02-.39.03-.59.05-.2.01-.4.02-.6.02,0,0,0,0-.01,0-.22,0-.44,0-.67-.02-.18-.01-.37-.03-.55-.05-.03,0-.06,0-.09,0-.21-.02-.41-.05-.61-.08-.17-.02-.34-.07-.51-.1-5.99-1.14-10.53-6.39-10.53-12.71,0-5.68,3.66-10.52,8.75-12.26.02,0,.04-.01.06-.02Z"/>
      </g>
      <g>
        <path class="cls-1" d="M208.24,59.83v69.66h-15.75V59.83h15.75Z"/>
        <path class="cls-1" d="M236.02,111.6l-4.92,17.88h-16.29l21.26-69.66h20.61l21.68,69.66h-16.97l-5.36-17.88h-20.03ZM253.72,99.87l-4.34-14.8c-1.2-4.12-2.43-9.34-3.5-13.41h-.22c-1.02,4.1-2.07,9.39-3.19,13.43l-4.17,14.79h15.41Z"/>
        <path class="cls-1" d="M304.93,113.23c4.17,2.24,10.72,4.37,17.46,4.37,7.23,0,11.07-3,11.07-7.59,0-4.28-3.32-6.8-11.66-9.74-11.62-4.12-19.21-10.45-19.21-20.63,0-11.88,9.97-20.91,26.35-20.91,7.94,0,13.68,1.58,17.79,3.51l-3.48,12.63c-2.76-1.32-7.78-3.31-14.54-3.31s-10.13,3.17-10.13,6.74c0,4.42,3.86,6.38,12.9,9.79,12.33,4.61,18.04,11.01,18.04,20.86,0,11.63-8.91,21.61-28.08,21.61-7.89,0-15.79-2.15-19.67-4.33l3.18-13.01Z"/>
        <path class="cls-1" d="M370.43,109.25c.47,6.53,6.92,9.63,14.26,9.63,5.32,0,9.68-.71,13.92-2.14l2.12,10.64c-5.23,2.13-11.55,3.2-18.33,3.2-17.13,0-26.97-9.98-26.97-25.74,0-12.85,8.02-27.06,25.5-27.06,16.39,0,22.59,12.74,22.59,25.26,0,2.74-.29,5.06-.56,6.23h-32.52ZM388.89,98.48c.03-3.79-1.66-10.25-8.82-10.25-6.64,0-9.34,6.07-9.77,10.25h18.59Z"/>
        <path class="cls-1" d="M410.81,95.06c0-6.3-.2-11.63-.41-16.16h13.64l.73,7.01h.33c2.04-3.26,7.19-8.15,15.63-8.15,10.33,0,18.11,6.89,18.11,21.78v29.94h-15.75v-28.04c0-6.52-2.33-10.98-8-10.98-4.33,0-6.89,3.03-7.98,5.94-.4.98-.55,2.48-.55,3.89v29.19h-15.75v-34.43Z"/>
        <path class="cls-1" d="M485.5,64.86c.02,4.38-3.22,7.85-8.45,7.85s-8.2-3.48-8.18-7.85c-.02-4.49,3.28-7.88,8.32-7.88s8.25,3.36,8.31,7.88ZM469.3,129.49v-50.58h15.75v50.58h-15.75Z"/>
        <path class="cls-1" d="M545.45,103.69c0,18.48-13.09,26.94-26.66,26.94-14.72,0-26.12-9.73-26.12-26.06s10.77-26.8,27.03-26.8,25.75,10.65,25.75,25.92ZM508.88,104.21c0,8.63,3.65,15.18,10.35,15.18,6.13,0,10.01-6.14,10.01-15.26,0-7.46-2.88-15.13-10-15.13-7.5,0-10.36,7.71-10.36,15.21Z"/>
        <path class="cls-1" d="M553.11,95.58c0-7.43-.13-12.32-.41-16.68h13.51l.57,9.36h.39c2.6-7.4,8.75-10.5,13.65-10.5,1.45,0,2.19.04,3.36.29v14.79c-1.22-.26-2.49-.44-4.25-.44-5.78,0-9.72,3.06-10.78,7.99-.2,1-.29,2.22-.29,3.5v25.59h-15.75v-33.91Z"/>
      </g>
    </g>
  </g>
</svg>